<svg width="210" height="243" viewBox="0 0 210 243" fill="none" xmlns="http://www.w3.org/2000/svg">
<path fill-rule="evenodd" clip-rule="evenodd" d="M36.9703 213.836C36.6406 211.548 39.9089 206.007 40.7894 203.639L53.4425 171.815C56.3847 164.95 58.8051 157.646 61.8814 150.748L75.0997 119.463C78.0782 112.819 80.7378 103.567 83.4844 98.3314C86.5824 92.4256 104.761 45.1939 104.797 45.136L116.07 72.8616C117.936 77.5833 120.295 81.8307 121.973 86.4583C123.82 91.5638 125.531 95.5287 127.574 100.384C129.444 104.831 131.528 109.176 133.426 114.017L139.068 127.918C140.822 132.256 142.507 137.354 144.409 142.033L156.08 169.874C161.859 184.159 167.403 196.597 173.201 211.794C176.411 220.212 180.998 231.448 185.752 238.201C188.995 242.804 196.398 242.699 200.434 241.181C206.815 238.788 207.982 237.589 209.547 230.326C211.037 223.432 208.435 221.201 206.616 215.313C205.399 211.377 202.819 205.142 201.108 201.351L189.6 173.835C184.915 162.426 180.719 150.654 175.494 139.447C174.531 137.376 173.599 134.53 172.69 132.249L155.685 90.2422C148.627 73.5496 126.259 15.4334 120.744 7.21019C117.758 2.76004 115.461 1.25373 108.236 0.279692C102.355 -0.509675 97.3984 0.417288 92.6988 3.04972C89.4341 4.8783 87.4484 10.5777 85.5316 15.3501L68.5848 56.9149C61.5408 75.1175 53.1671 93.7146 45.6629 112.507C41.9634 121.777 38.0247 131.376 34.1658 140.49C33.2635 142.619 32.4845 145.375 31.6438 147.471L11.3997 196.235C7.86684 205.718 3.47161 214.629 0.674319 224.503C-1.25697 231.318 1.22146 234.316 4.79779 238.06C8.68937 242.137 12.715 242.644 19.759 242.785C45.7245 243.303 72.2626 242.746 98.3006 242.789C104.678 242.8 111.515 243.024 117.831 242.478C122.259 242.097 128.527 239.936 130.288 235.598C132.321 230.59 132.886 223.924 129.535 219.897C125.621 215.197 121.393 213.919 115.309 213.872C102.308 213.771 89.2819 214.053 76.2882 213.945C63.5772 213.836 49.4639 214.509 36.9776 213.843L36.9703 213.836Z" fill="#00263C"/>
</svg>
