<svg width="120" height="37" viewBox="0 0 120 37" fill="none" xmlns="http://www.w3.org/2000/svg">
<g id="acxTechLogo">
<path id="Vector" fill-rule="evenodd" clip-rule="evenodd" d="M3.41887 19.7169C3.38834 19.5061 3.69054 18.9961 3.77192 18.778L4.94183 15.8482C5.21389 15.2161 5.43747 14.5438 5.72188 13.9086L6.94387 11.0284C7.2193 10.4167 7.4652 9.56517 7.71916 9.0828C8.00556 8.53899 9.68645 4.19074 9.68967 4.18563L10.7318 6.73813C10.9041 7.17272 11.1226 7.56388 11.2775 7.98999C11.4484 8.46 11.6066 8.82505 11.7955 9.27201C11.9684 9.68133 12.161 10.0814 12.3364 10.527L12.858 11.8066C13.0202 12.2058 13.176 12.6754 13.3519 13.1061L14.4309 15.6692C14.9654 16.9844 15.4777 18.1294 16.0137 19.5283C16.3107 20.3032 16.7345 21.3377 17.1742 21.9594C17.4739 22.3832 18.1583 22.3734 18.5317 22.2338C19.1217 22.0133 19.2294 21.9032 19.3743 21.2342C19.5119 20.5997 19.2716 20.3942 19.1031 19.852C18.9906 19.4896 18.752 18.9156 18.5939 18.5667L17.5299 16.0335C17.0967 14.9833 16.7088 13.8995 16.2258 12.8678C16.1366 12.6772 16.0505 12.415 15.9665 12.2049L14.3943 8.33772C13.7417 6.80117 11.6738 1.45056 11.1637 0.69343C10.8876 0.283723 10.6753 0.145043 10.0071 0.0555149C9.46333 -0.0172981 9.0052 0.0683373 8.57046 0.310437C8.26857 0.478731 8.0851 1.00346 7.90792 1.4427L6.341 5.26943C5.68966 6.94527 4.91545 8.65714 4.22184 10.3872C3.87984 11.2406 3.51558 12.1245 3.15885 12.9634C3.07548 13.1595 3.00345 13.413 2.92568 13.6061L1.05396 18.0955C0.727519 18.9686 0.32116 19.789 0.0623722 20.6981C-0.116263 21.3257 0.112995 21.6016 0.443574 21.9462C0.8033 22.3215 1.1756 22.3683 1.82672 22.3812C4.22744 22.4287 6.68079 22.3774 9.08834 22.3815C9.67809 22.3825 10.31 22.4031 10.894 22.3528C11.3033 22.3177 11.883 22.1187 12.0457 21.7194C12.2335 21.2584 12.286 20.6445 11.9761 20.274C11.6142 19.8413 11.2235 19.7237 10.6609 19.7194C9.45903 19.7101 8.25468 19.7362 7.05324 19.726C5.87812 19.716 4.57336 19.778 3.41894 19.7166L3.41887 19.7169Z" fill="#E4E5DF"/>
<path id="Vector_2" fill-rule="evenodd" clip-rule="evenodd" d="M69.786 12.7931C69.9289 11.7419 70.6281 10.5035 71.3122 9.67736C73.0579 7.56938 76.3525 7.3475 78.6515 8.74217C79.3973 9.19462 80.1955 10.0225 80.626 10.7826C81.0009 11.4449 81.133 12.0546 81.355 12.8182C80.7989 12.7136 76.4624 12.7824 75.5064 12.78C73.5955 12.7751 71.6772 12.7713 69.7859 12.7931L69.786 12.7931ZM69.857 15.1015C71.8253 15.1263 74.0512 15.0224 75.8258 15.0565C77.4492 15.0877 80.472 15.1253 82.028 15.0723C83.0789 15.0366 83.9866 15.1464 84.0408 13.9862C84.1186 12.3204 83.5442 10.5254 82.6957 9.18332C82.5966 9.02663 82.5078 8.85055 82.3861 8.71034C82.2997 8.61089 82.2859 8.58906 82.2177 8.5064L81.6671 7.85635C81.5992 7.79049 81.5414 7.7595 81.4713 7.68493C81.1976 7.39391 81.5253 7.61822 80.8842 7.11777C79.7243 6.21218 78.6878 5.73562 77.2091 5.34812C75.9897 5.02848 73.134 5.24615 71.89 6.06351C71.5817 6.26599 71.2272 6.42001 70.9308 6.62662C70.7624 6.74393 70.662 6.84865 70.4912 6.97283C69.5947 7.62463 68.5099 8.92695 68.0406 9.91725L67.5653 11.0101C66.9765 12.5811 66.925 14.7633 67.4516 16.3923C67.8076 17.4938 67.6976 17.4468 68.3766 18.5527L69.1739 19.6476L70.143 20.6141C70.2235 20.696 70.4599 20.8819 70.5799 20.9625L71.534 21.576C72.6119 22.2964 73.8453 22.4641 75.0877 22.6534C76.0786 22.8043 78.0299 22.2948 78.933 21.9096C79.2948 21.7553 80.1355 21.3235 80.4368 21.0586C80.7315 20.7997 80.7414 20.8656 80.8687 20.7051L81.8088 19.7538C82.2066 19.4548 81.8878 19.7244 82.1766 19.3349C82.2571 19.2261 82.2768 19.2031 82.3255 19.0705C82.4963 18.6054 82.221 17.4284 81.0461 17.4507C80.2399 17.4659 80.095 17.9019 79.8218 18.1444L78.2816 19.377C77.965 19.5339 77.4244 19.6189 77.0944 19.7559C75.7487 20.3146 73.495 19.9288 72.2562 18.9247L71.8254 18.6182C71.6384 18.5018 71.5433 18.3962 71.4214 18.2382L70.9189 17.5867C70.7947 17.4123 70.8216 17.514 70.6985 17.392C70.397 17.0931 69.9055 15.6117 69.857 15.1016V15.1015Z" fill="#E4E5DF"/>
<path id="Vector_3" fill-rule="evenodd" clip-rule="evenodd" d="M107.685 6.99389C107.645 5.87269 107.624 4.80385 107.628 3.67929C107.631 2.72112 107.784 1.44308 107.35 0.635191L106.954 0.205412C106.774 0.113823 106.483 0.110694 106.236 0.121226C105.782 0.140765 105.442 0.353251 105.19 0.706402C104.947 1.04726 105.007 3.32691 105.005 3.90941L105.006 20.5705C105.004 21.261 104.98 21.4975 105.362 21.8977C105.682 22.2333 106.036 22.3839 106.588 22.3313C106.931 22.2986 107.392 21.8879 107.493 21.5972C107.697 21.0102 107.632 17.4745 107.628 16.7504C107.611 14.1351 107.294 11.6889 108.665 9.82657L109.037 9.3684C109.236 9.07882 109.382 8.9954 109.732 8.77223C110.055 8.56646 110.392 8.32192 110.793 8.16386C112.466 7.50258 113.96 7.89436 115.317 8.8165C115.371 8.85283 115.376 8.85062 115.426 8.89298C115.502 8.95862 115.454 8.92923 115.539 9.01029C115.626 9.09272 115.684 9.11317 115.772 9.19301C116.304 9.67774 116.815 10.581 117.043 11.2858C117.153 11.6238 117.225 12.3416 117.244 12.746C117.366 15.4366 117.174 18.3286 117.315 21.0327C117.331 21.3384 117.285 21.4492 117.462 21.6851C117.552 21.8042 117.774 22.0543 117.901 22.1237C118.221 22.2981 118.895 22.4447 119.191 22.2331C119.573 21.96 119.779 21.6744 119.838 21.22C119.95 20.3604 119.891 15.8504 119.889 14.6332C119.887 13.1286 119.944 12.9929 119.729 11.4617C119.509 9.89335 118.788 8.6937 117.815 7.57502C117.347 7.03571 117.414 7.23911 116.924 6.75866C116.732 6.5696 115.591 5.92444 115.356 5.83468C114.318 5.43833 113.85 5.22806 112.619 5.22546C111.023 5.22218 109.923 5.4497 108.659 6.27362L107.685 6.99366L107.685 6.99389Z" fill="#E4E5DF"/>
<path id="Vector_4" fill-rule="evenodd" clip-rule="evenodd" d="M29.6121 5.24309C29.1203 5.27606 28.6229 5.28171 28.1868 5.42093C26.7882 5.8675 26.1884 6.09952 24.9997 7.0396C23.9263 7.8884 24.2141 7.81078 23.8038 8.19675C23.6596 8.3323 23.556 8.47167 23.432 8.65546C23.2316 8.95258 22.9823 9.28414 22.8007 9.63813C22.109 10.9866 21.8552 11.6537 21.7124 13.3433C21.6444 14.1492 21.7905 15.5361 22.0212 16.2602C22.1424 16.6402 22.1821 17.0979 22.3916 17.4568C23.1359 18.7314 22.8389 18.5023 23.7938 19.651C23.8675 19.7397 23.8914 19.7976 23.9801 19.8827C25.2052 21.0582 24.6189 20.6166 26.23 21.6458C26.7858 22.001 27.9395 22.3787 28.6064 22.5008C29.6074 22.6842 30.4236 22.7029 31.4413 22.5204C33.1984 22.2054 33.9368 21.7956 35.3713 20.8592C36.0704 20.4027 37.0534 19.4524 37.1449 18.5767C37.1918 18.1288 36.2757 16.1381 34.528 17.9943C33.6245 18.9538 32.8997 19.4934 31.5662 19.8311C29.8013 20.2779 28.0047 19.8184 26.6411 18.7517C26.1987 18.4058 26.2012 18.4944 25.8149 17.9634L25.1557 17.0086C23.9983 15.1544 24.1055 12.3398 25.3609 10.4836C25.4683 10.3247 25.4074 10.388 25.5497 10.2573C25.6971 10.1221 25.7778 9.98067 25.9309 9.80764C26.3666 9.3152 26.1739 9.49601 26.7565 9.01387C27.6301 8.29086 29.1719 7.79742 30.4085 7.87199C31.8243 7.95725 32.3843 8.24857 33.4213 8.87573C33.9049 9.1682 33.8301 9.18606 34.0574 9.39236C34.1408 9.46808 34.1958 9.50647 34.2801 9.58577C34.6347 9.91976 34.7207 10.0819 35.0796 10.4004C35.2578 10.5585 35.4482 10.5374 35.7557 10.5719C36.247 10.627 36.5167 10.5681 36.8567 10.093C37.512 9.17713 36.961 8.59287 36.3694 8.01212C36.212 7.85764 36.1604 7.73995 36.0121 7.58585C35.8606 7.42855 35.7134 7.36795 35.5636 7.20477C35.3486 6.97061 34.9829 6.71332 34.6221 6.53113C34.412 6.42504 34.328 6.31682 34.16 6.20691C34.0421 6.12975 33.7764 5.96466 33.6606 5.93031C32.3894 5.55297 32.4875 5.37574 31.094 5.25927C30.611 5.2189 30.0954 5.21065 29.6118 5.24309H29.6121Z" fill="#E4E5DF"/>
<path id="Vector_5" fill-rule="evenodd" clip-rule="evenodd" d="M94.4448 5.26339C93.1709 5.44634 91.5029 6.03044 90.4905 6.85375C90.3618 6.95831 90.3972 6.94068 90.2509 7.02983C90.1137 7.1134 90.1461 7.10432 90.0205 7.21392C89.3676 7.78322 88.9722 8.15194 88.4923 8.86748C88.0482 9.52959 87.7223 10.1711 87.4081 11.0091C87.0976 11.8374 86.9456 12.6971 86.8935 13.6687C86.8385 14.6929 87.0238 15.5612 87.2982 16.4833C87.5322 17.2697 88.2613 19.0262 88.9729 19.5965L90.1677 20.8004C91.0167 21.6236 92.9224 22.3777 94.0322 22.53C95.5077 22.7325 95.4933 22.6926 96.9456 22.4656C97.8445 22.3251 99.5956 21.5809 100.301 21.0321C100.377 20.9734 100.431 20.9286 100.512 20.8751C100.824 20.6705 101.321 20.0332 101.526 19.8608C101.735 19.6856 101.618 19.8853 101.827 19.5605C102.022 19.2558 102.466 18.9815 102.285 18.3541C102.094 17.6924 101.822 17.2637 101.039 17.2649C100.414 17.2658 100.513 17.2661 99.959 17.7944C99.8613 17.8874 99.8445 17.929 99.7542 18.0054C99.6332 18.1074 99.6272 18.0889 99.5294 18.1928C99.2179 18.5237 99.0401 18.7433 98.6861 18.969C97.7694 19.5537 97.4539 19.6679 96.4273 19.9004C96.2511 19.9402 95.9588 20.0171 95.7653 20.0285C95.624 20.0367 95.2131 19.9783 95.0262 19.9662C94.4181 19.9265 94.1969 19.928 93.6494 19.7305C93.2304 19.5795 92.8572 19.5588 92.5249 19.2852C92.3643 19.1528 92.2931 19.0688 92.0979 18.926C91.4661 18.4637 91.7046 18.9146 90.8405 17.737C90.4517 17.2072 90.5559 17.409 90.1847 16.776C89.8339 16.1782 89.5639 14.9643 89.5405 14.2192C89.5003 12.9478 89.868 11.4642 90.5833 10.447C90.7109 10.2657 90.7968 10.1513 90.9073 9.98501C91.1469 9.62408 91.8241 9.08172 92.1816 8.80795C92.3373 8.68881 93.0098 8.36145 93.2413 8.25284C94.0005 7.89672 95.0327 7.75414 95.9074 7.90389C96.9734 8.08646 97.4942 8.08287 98.3263 8.67774L99.2445 9.32993L100.054 10.1333C100.557 10.555 100.48 10.6551 101.119 10.579C101.326 10.5544 101.553 10.4806 101.715 10.3794C102.344 9.98532 102.454 9.48013 102.175 8.75574C101.993 8.2807 101.762 8.22208 101.426 7.89488C101.132 7.60989 100.974 7.31696 100.635 7.07211L99.6884 6.40367C98.9886 5.94183 98.1966 5.81017 97.4163 5.49083C96.7717 5.22714 95.2023 5.1544 94.4444 5.26331L94.4448 5.26339Z" fill="#E4E5DF"/>
<path id="Vector_6" fill-rule="evenodd" clip-rule="evenodd" d="M46.5526 11.1107C46.5424 11.1036 46.5285 11.0781 46.5241 11.0864L45.5735 9.85475C45.4668 9.69401 45.3499 9.56197 45.2426 9.40154L44.1555 7.90643C44.0642 7.78026 44.0823 7.78797 43.9769 7.67051C43.3324 6.95223 42.6772 5.47627 41.6035 5.50955C41.2758 5.5197 41.0549 5.6809 40.8612 5.88789C40.7655 5.99024 40.7443 5.99184 40.6644 6.10434C40.4538 6.40056 40.2865 6.76836 40.4604 7.16784C40.6368 7.5732 40.7496 7.77347 41.0243 8.12113L42.8626 10.6185C42.8681 10.6269 42.8752 10.6386 42.8809 10.6468C42.8865 10.6549 42.8944 10.6661 42.9002 10.674C42.9059 10.6819 42.9144 10.6925 42.9203 10.7003C43.0371 10.8532 43.1197 10.9684 43.2402 11.117L43.7247 11.7858C43.941 12.045 44.8621 13.1648 44.8661 13.3447C44.8688 13.4663 43.1619 15.8436 43.0677 15.998C42.7338 16.5448 42.3255 17.0443 41.9817 17.5883C41.533 18.298 40.957 18.947 40.5079 19.6651C40.079 20.3505 39.2398 21.0144 39.8861 22.0502C40.1955 22.5462 41.1729 22.9111 41.7016 22.4196C42.0108 22.1323 42.238 21.7246 42.4963 21.4105C42.9558 20.8516 43.3716 20.2101 43.7845 19.6121C43.8719 19.4857 43.8897 19.4501 43.9701 19.3349L45.0623 17.7515C45.1865 17.5789 45.3035 17.4586 45.4379 17.2515C45.619 16.9726 46.357 15.8261 46.5527 15.6502C46.8493 15.9878 47.5886 17.236 47.9731 17.7302L49.7785 20.352C49.9073 20.5494 49.9953 20.691 50.1262 20.8798C50.7408 21.7655 51.3727 23.038 52.6381 22.534C52.897 22.4309 52.993 22.2698 53.1211 22.0897C53.4192 21.6706 53.4856 21.1702 53.2197 20.7027L51.7957 18.6225C51.3068 18.037 50.7804 17.1566 50.3446 16.5214L49.9927 15.9974C49.8709 15.8138 49.7329 15.6157 49.615 15.452L48.5417 13.8965C48.4119 13.6893 48.2653 13.5948 48.1307 13.3908C48.2134 13.2611 48.1841 13.3025 48.2846 13.1826C48.6129 12.7911 48.9056 12.2899 49.2393 11.9205C49.4673 11.6681 49.8037 11.085 50.0371 10.7817C50.0911 10.7114 50.1356 10.65 50.1912 10.5681L52.1199 7.97664C52.1729 7.90979 52.2346 7.83277 52.2803 7.76775C53.3475 6.24493 51.6658 4.70143 50.4798 5.93002C49.8989 6.53191 49.2833 7.34766 48.8075 8.04091C48.2908 8.79384 47.7351 9.47175 47.2019 10.2166C47.1624 10.2718 47.161 10.2789 47.127 10.3264C47.0784 10.3943 47.1053 10.3567 47.0471 10.4311L46.729 10.8499C46.6138 11.0356 46.7212 10.9635 46.5526 11.111L46.5526 11.1107Z" fill="#E4E5DF"/>
<path id="Vector_7" fill-rule="evenodd" clip-rule="evenodd" d="M60.0275 5.36919C59.5913 5.40804 59.0148 5.70418 58.8914 6.05931C58.7325 6.5171 58.7821 8.42337 58.7841 9.01816L58.7831 18.8676C58.78 19.6545 58.7781 20.4922 58.7965 21.2611C58.8172 22.1285 60.2899 22.7907 61.004 21.971C61.5248 21.3733 61.4186 19.4652 61.4201 18.6835C61.4226 17.3788 61.4548 6.93108 61.3853 6.42032C61.3293 6.00856 61.087 5.83523 60.8864 5.66334C60.6802 5.48665 60.372 5.33851 60.0275 5.36919Z" fill="#E4E5DF"/>
<path id="Vector_8" fill-rule="evenodd" clip-rule="evenodd" d="M54.0418 0.0237654C53.2669 0.0931438 52.7797 0.119552 52.4846 0.747468C52.416 0.8934 52.2688 1.43492 52.3077 1.63863C52.3545 1.88256 52.6537 2.2006 52.7754 2.32073C52.7992 2.34432 52.8212 2.36508 52.8449 2.38843C53.0318 2.57161 53.2385 2.63725 53.5408 2.65488C54.5804 2.71563 55.9023 2.68098 56.9595 2.68716C59.9121 2.70441 63.0591 2.76929 65.9843 2.64877C66.3258 2.63465 67.1425 2.59336 67.3754 2.35691C67.6608 2.06718 67.8231 1.42377 67.7716 1.05841C67.7249 0.728464 67.4985 0.527885 67.3154 0.371497C66.71 -0.145597 64.0092 0.0266657 63.0648 0.0352903L56.2657 0.0340692C55.5984 0.0283449 54.6739 -0.0327142 54.0418 0.0238418V0.0237654Z" fill="#E4E5DF"/>
<path id="Vector_9" d="M31.9142 27.8921C29.9401 27.8921 29.1505 28.9661 29.1505 30.4328C29.1505 31.6638 29.7032 32.9865 32.0721 32.9865H34.1384C35.2307 32.9865 35.5334 33.5104 35.5334 34.0866C35.5334 34.7284 35.1517 35.1868 34.3095 35.1868H29.3084V36.7321H34.2568C36.2835 36.7321 37.0864 35.632 37.0864 34.1391C37.0864 32.8687 36.5205 31.5329 34.0989 31.5329H32.0194C30.9798 31.5329 30.7034 31.0222 30.7034 30.4852C30.7034 29.8698 31.0588 29.4375 31.8615 29.4375H36.4152V27.8921H31.9142ZM38.7315 29.8173V36.7321H40.1266V29.8173H38.7315ZM38.7315 27.2112V28.8221H40.1397V27.2112H38.7315ZM44.0617 29.8173C42.4428 29.8173 41.798 30.59 41.798 31.8341C41.798 32.8949 42.2718 33.8509 44.1932 33.8509H45.8383C46.5358 33.8509 46.8253 34.0735 46.8253 34.6236C46.8253 35.1605 46.5622 35.3832 45.9172 35.3832H41.8768V36.7321H45.9172C47.5492 36.7321 48.194 35.8677 48.194 34.6367C48.194 33.5628 47.7071 32.6853 45.7857 32.6853H44.1537C43.3772 32.6853 43.1667 32.4235 43.1667 31.9388C43.1667 31.415 43.4299 31.1531 44.0748 31.1531H47.9178V29.8173H44.0617ZM49.1418 29.8173V31.1531H50.0893V34.3485C50.0893 36.1558 50.7078 36.732 52.1424 36.732H53.3927V35.4617H52.432C51.774 35.4617 51.4975 35.1998 51.4975 34.4271V31.1531H53.419V29.8172H51.4975V28.1803H50.0893V29.8172H49.1418V29.8173ZM57.0514 29.8173C55.3142 29.8173 54.6298 30.7864 54.6298 32.096V34.4534C54.6298 35.763 55.3142 36.7321 57.0514 36.7321H61.3023V35.3832H57.0514C56.2881 35.3832 55.9854 34.9772 55.9854 34.4272V33.9296H59.2888C60.9997 33.9296 61.6445 33.2093 61.6445 31.939C61.6445 30.6032 60.947 29.8174 59.3019 29.8174H57.0514V29.8173ZM55.9854 32.1092C55.9854 31.5722 56.2881 31.1532 57.0514 31.1532H59.2888C59.9731 31.1532 60.2758 31.4937 60.2758 32.0175C60.2758 32.5283 59.9995 32.8426 59.2493 32.8426H55.9854V32.1092ZM64.3293 29.8173C63.6318 29.8173 63.3554 30.0792 63.3554 30.8912V36.7321H64.7506V31.3496C64.7506 31.2186 64.8032 31.1531 64.9216 31.1531H68.4487V36.7321H69.857V31.1531H71.4889C72.9498 31.1531 73.5816 31.7556 73.5816 32.8425V36.732H74.9897V32.8425C74.9897 30.9304 73.8316 29.8173 71.4757 29.8173H64.3294H64.3293ZM77.2137 29.8173V31.1531H81.3726C82.1359 31.1531 82.4386 31.5722 82.4386 32.1091V32.6329H79.1352C77.4243 32.6329 76.7926 33.3664 76.7926 34.6235C76.7926 35.9332 77.477 36.732 79.1221 36.732H82.3728C83.5441 36.732 83.8074 36.3391 83.8074 35.3439V32.096C83.8074 30.7864 83.123 29.8172 81.3858 29.8172H77.2138L77.2137 29.8173ZM82.0569 35.3832H79.1352C78.4377 35.3832 78.1613 35.0558 78.1613 34.5451C78.1613 34.0343 78.4245 33.7331 79.1615 33.7331H82.4386V35.0296C82.4386 35.2784 82.3333 35.3832 82.0569 35.3832ZM87.7161 29.8173C86.0972 29.8173 85.4524 30.59 85.4524 31.8341C85.4524 32.8949 85.9262 33.8509 87.8476 33.8509H89.4927C90.1902 33.8509 90.4798 34.0735 90.4798 34.6236C90.4798 35.1605 90.2166 35.3832 89.5716 35.3832H85.5313V36.7321H89.5716C91.2036 36.7321 91.8485 35.8677 91.8485 34.6367C91.8485 33.5628 91.3615 32.6853 89.4401 32.6853H87.8081C87.0316 32.6853 86.8211 32.4235 86.8211 31.9388C86.8211 31.415 87.0843 31.1531 87.7293 31.1531H91.5722V29.8173H87.7161Z" fill="#E4E5DF"/>
</g>
</svg>
